HIERARCHY
ROOT Hips
{
	OFFSET -0.423459 88.195518 5.389343
	CHANNELS 6 Xposition Yposition Zposition Zrotation Yrotation Xrotation 
	JOINT Spine
	{
		OFFSET -0.000000 8.814246 -2.080107
		CHANNELS 3 Zrotation Yrotation Xrotation
		JOINT Spine1
		{
			OFFSET -0.000000 8.844141 0.000000
			CHANNELS 3 Zrotation Yrotation Xrotation
			JOINT Spine2
			{
				OFFSET 0.000000 11.682268 0.000000
				CHANNELS 3 Zrotation Yrotation Xrotation
				JOINT Spine3
				{
					OFFSET -0.000000 11.746700 0.000000
					CHANNELS 3 Zrotation Yrotation Xrotation
					JOINT Neck
					{
						OFFSET -0.000000 17.658264 0.000000
						CHANNELS 3 Zrotation Yrotation Xrotation
						JOINT Neck1
						{
							OFFSET 0.000000 5.101515 -0.000000
							CHANNELS 3 Zrotation Yrotation Xrotation
							JOINT Head
							{
								OFFSET -0.000000 5.101515 -0.000000
								CHANNELS 3 Zrotation Yrotation Xrotation
								JOINT HeadEnd
								{
									OFFSET 0.000000 11.655085 -0.000000
									CHANNELS 3 Zrotation Yrotation Xrotation
									End Site
									{
										OFFSET 0.000000 0.000000 0.000000
									}
								}
							}
						}
					}
					JOINT RightShoulder
					{
						OFFSET -2.625389 11.175210 -0.000000
						CHANNELS 3 Zrotation Yrotation Xrotation
						JOINT RightArm
						{
							OFFSET 0.000000 10.434715 -0.000000
							CHANNELS 3 Zrotation Yrotation Xrotation
							JOINT RightForeArm
							{
								OFFSET -0.000000 29.628420 0.000000
								CHANNELS 3 Zrotation Yrotation Xrotation
								JOINT RightHand
								{
									OFFSET -0.000000 22.857611 0.000000
									CHANNELS 3 Zrotation Yrotation Xrotation
									JOINT RightHandThumb1
									{
										OFFSET -2.867323 3.959563 2.944291
										CHANNELS 3 Zrotation Yrotation Xrotation
										JOINT RightHandThumb2
										{
											OFFSET -0.000000 3.350399 0.000000
											CHANNELS 3 Zrotation Yrotation Xrotation
											JOINT RightHandThumb3
											{
												OFFSET -0.000000 3.756509 -0.000000
												CHANNELS 3 Zrotation Yrotation Xrotation
												JOINT RightHandThumb4
												{
													OFFSET -0.000000 3.147345 0.000000
													CHANNELS 3 Zrotation Yrotation Xrotation
													End Site
													{
														OFFSET 0.000000 0.000000 0.000000
													}
												}
											}
										}
									}
									JOINT RightHandIndex1
									{
										OFFSET -0.086752 10.030893 2.345280
										CHANNELS 3 Zrotation Yrotation Xrotation
										JOINT RightHandIndex2
										{
											OFFSET 0.000000 4.061090 -0.000000
											CHANNELS 3 Zrotation Yrotation Xrotation
											JOINT RightHandIndex3
											{
												OFFSET 0.000000 3.248873 -0.000000
												CHANNELS 3 Zrotation Yrotation Xrotation
												JOINT RightHandIndex4
												{
													OFFSET 0.000000 2.639709 0.000000
													CHANNELS 3 Zrotation Yrotation Xrotation
													End Site
													{
														OFFSET 0.000000 0.000000 0.000000
													}
												}
											}
										}
									}
									JOINT RightHandMiddle1
									{
										OFFSET 0.104102 9.502952 0.006768
										CHANNELS 3 Zrotation Yrotation Xrotation
										JOINT RightHandMiddle2
										{
											OFFSET 0.000000 4.568727 0.000000
											CHANNELS 3 Zrotation Yrotation Xrotation
											JOINT RightHandMiddle3
											{
												OFFSET 0.000000 3.654981 -0.000000
												CHANNELS 3 Zrotation Yrotation Xrotation
												JOINT RightHandMiddle4
												{
													OFFSET -0.000000 2.741236 0.000000
													CHANNELS 3 Zrotation Yrotation Xrotation
													End Site
													{
														OFFSET 0.000000 0.000000 0.000000
													}
												}
											}
										}
									}
									JOINT RightHandRing1
									{
										OFFSET 0.086752 8.921708 -2.267442
										CHANNELS 3 Zrotation Yrotation Xrotation
										JOINT RightHandRing2
										{
											OFFSET 0.000000 4.061090 -0.000000
											CHANNELS 3 Zrotation Yrotation Xrotation
											JOINT RightHandRing3
											{
												OFFSET -0.000000 3.654981 0.000000
												CHANNELS 3 Zrotation Yrotation Xrotation
												JOINT RightHandRing4
												{
													OFFSET -0.000000 2.741236 0.000000
													CHANNELS 3 Zrotation Yrotation Xrotation
													End Site
													{
														OFFSET 0.000000 0.000000 0.000000
													}
												}
											}
										}
									}
									JOINT RightHandPinky1
									{
										OFFSET -0.173504 7.976997 -4.467199
										CHANNELS 3 Zrotation Yrotation Xrotation
										JOINT RightHandPinky2
										{
											OFFSET -0.000000 3.350399 0.000000
											CHANNELS 3 Zrotation Yrotation Xrotation
											JOINT RightHandPinky3
											{
												OFFSET 0.000000 2.842763 0.000000
												CHANNELS 3 Zrotation Yrotation Xrotation
												JOINT RightHandPinky4
												{
													OFFSET 0.000000 2.639709 0.000000
													CHANNELS 3 Zrotation Yrotation Xrotation
													End Site
													{
														OFFSET 0.000000 0.000000 0.000000
													}
												}
											}
										}
									}
									JOINT RightForeArmEnd
									{
										OFFSET 0.000000 0.000000 0.000000
										CHANNELS 3 Zrotation Yrotation Xrotation
										End Site
										{
											OFFSET 0.000000 0.000000 0.000000
										}
									}
								}
								JOINT RightArmEnd
								{
									OFFSET 0.000000 0.000000 0.000000
									CHANNELS 3 Zrotation Yrotation Xrotation
									End Site
									{
										OFFSET 0.000000 0.000000 0.000000
									}
								}
							}
						}
					}
					JOINT LeftShoulder
					{
						OFFSET 2.625389 11.175210 0.000000
						CHANNELS 3 Zrotation Yrotation Xrotation
						JOINT LeftArm
						{
							OFFSET -0.000000 10.813635 -0.000000
							CHANNELS 3 Zrotation Yrotation Xrotation
							JOINT LeftForeArm
							{
								OFFSET -0.000000 28.724781 -0.000000
								CHANNELS 3 Zrotation Yrotation Xrotation
								JOINT LeftHand
								{
									OFFSET 0.644384 25.716167 -0.328871
									CHANNELS 3 Zrotation Yrotation Xrotation
									JOINT LeftHandThumb1
									{
										OFFSET 2.867323 3.959563 2.944291
										CHANNELS 3 Zrotation Yrotation Xrotation
										JOINT LeftHandThumb2
										{
											OFFSET 0.000000 3.350399 0.000000
											CHANNELS 3 Zrotation Yrotation Xrotation
											JOINT LeftHandThumb3
											{
												OFFSET -0.000000 3.756509 -0.000000
												CHANNELS 3 Zrotation Yrotation Xrotation
												JOINT LeftHandThumb4
												{
													OFFSET 0.000000 3.100000 0.000000
													CHANNELS 3 Zrotation Yrotation Xrotation
													End Site
													{
														OFFSET 0.000000 0.000000 0.000000
													}
												}
											}
										}
									}
									JOINT LeftHandIndex1
									{
										OFFSET 0.086752 10.030893 2.345280
										CHANNELS 3 Zrotation Yrotation Xrotation
										JOINT LeftHandIndex2
										{
											OFFSET 0.000000 4.061090 0.000000
											CHANNELS 3 Zrotation Yrotation Xrotation
											JOINT LeftHandIndex3
											{
												OFFSET -0.000000 3.248873 -0.000000
												CHANNELS 3 Zrotation Yrotation Xrotation
												JOINT LeftHandIndex4
												{
													OFFSET 0.000000 2.639709 0.000000
													CHANNELS 3 Zrotation Yrotation Xrotation
													End Site
													{
														OFFSET 0.000000 0.000000 0.000000
													}
												}
											}
										}
									}
									JOINT LeftHandMiddle1
									{
										OFFSET -0.104102 9.502952 0.006768
										CHANNELS 3 Zrotation Yrotation Xrotation
										JOINT LeftHandMiddle2
										{
											OFFSET -0.000000 4.568727 -0.000000
											CHANNELS 3 Zrotation Yrotation Xrotation
											JOINT LeftHandMiddle3
											{
												OFFSET -0.000000 3.654981 -0.000000
												CHANNELS 3 Zrotation Yrotation Xrotation
												JOINT LeftHandMiddle4
												{
													OFFSET 0.000000 2.741236 0.000000
													CHANNELS 3 Zrotation Yrotation Xrotation
													End Site
													{
														OFFSET 0.000000 0.000000 0.000000
													}
												}
											}
										}
									}
									JOINT LeftHandRing1
									{
										OFFSET -0.086752 8.921708 -2.267442
										CHANNELS 3 Zrotation Yrotation Xrotation
										JOINT LeftHandRing2
										{
											OFFSET 0.000000 4.061090 0.000000
											CHANNELS 3 Zrotation Yrotation Xrotation
											JOINT LeftHandRing3
											{
												OFFSET 0.000000 3.654981 -0.000000
												CHANNELS 3 Zrotation Yrotation Xrotation
												JOINT LeftHandRing4
												{
													OFFSET -0.000000 2.741236 -0.000000
													CHANNELS 3 Zrotation Yrotation Xrotation
													End Site
													{
														OFFSET 0.000000 0.000000 0.000000
													}
												}
											}
										}
									}
									JOINT LeftHandPinky1
									{
										OFFSET 0.173504 7.976997 -4.467199
										CHANNELS 3 Zrotation Yrotation Xrotation
										JOINT LeftHandPinky2
										{
											OFFSET -0.000000 3.350399 -0.000000
											CHANNELS 3 Zrotation Yrotation Xrotation
											JOINT LeftHandPinky3
											{
												OFFSET 0.000000 2.842763 -0.000000
												CHANNELS 3 Zrotation Yrotation Xrotation
												JOINT LeftHandPinky4
												{
													OFFSET -0.000000 2.639709 -0.000000
													CHANNELS 3 Zrotation Yrotation Xrotation
													End Site
													{
														OFFSET 0.000000 0.000000 0.000000
													}
												}
											}
										}
									}
									JOINT LeftForeArmEnd
									{
										OFFSET 0.000000 0.000000 0.000000
										CHANNELS 3 Zrotation Yrotation Xrotation
										End Site
										{
											OFFSET 0.000000 0.000000 0.000000
										}
									}
								}
								JOINT LeftArmEnd
								{
									OFFSET 0.000000 0.000000 0.000000
									CHANNELS 3 Zrotation Yrotation Xrotation
									End Site
									{
										OFFSET 0.000000 0.000000 0.000000
									}
								}
							}
						}
					}
				}
			}
		}
	}
	JOINT RightUpLeg
	{
		OFFSET -11.289943 -0.000000 0.000000
		CHANNELS 3 Zrotation Yrotation Xrotation
		JOINT RightLeg
		{
			OFFSET 0.000000 -38.200325 -0.000000
			CHANNELS 3 Zrotation Yrotation Xrotation
			JOINT RightFoot
			{
				OFFSET -0.000000 -39.900856 0.000000
				CHANNELS 3 Zrotation Yrotation Xrotation
				JOINT RightToeBase
				{
					OFFSET 0.000000 0.000000 15.261641
					CHANNELS 3 Zrotation Yrotation Xrotation
					JOINT RightToeBaseEnd
					{
						OFFSET 0.000000 0.000000 7.370709
						CHANNELS 3 Zrotation Yrotation Xrotation
						End Site
						{
							OFFSET 0.000000 0.000000 0.000000
						}
					}
				}
				JOINT RightLegEnd
				{
					OFFSET 0.000000 0.000000 0.000000
					CHANNELS 3 Zrotation Yrotation Xrotation
					End Site
					{
						OFFSET 0.000000 0.000000 0.000000
					}
				}
			}
			JOINT RightUpLegEnd
			{
				OFFSET 0.000000 0.000000 0.000000
				CHANNELS 3 Zrotation Yrotation Xrotation
				End Site
				{
					OFFSET 0.000000 0.000000 0.000000
				}
			}
		}
	}
	JOINT LeftUpLeg
	{
		OFFSET 11.315661 0.000000 0.000000
		CHANNELS 3 Zrotation Yrotation Xrotation
		JOINT LeftLeg
		{
			OFFSET 0.000000 -38.200325 -0.000000
			CHANNELS 3 Zrotation Yrotation Xrotation
			JOINT LeftFoot
			{
				OFFSET 0.000000 -39.900856 -0.000000
				CHANNELS 3 Zrotation Yrotation Xrotation
				JOINT LeftToeBase
				{
					OFFSET 0.000000 -0.000000 15.261641
					CHANNELS 3 Zrotation Yrotation Xrotation
					JOINT LeftToeBaseEnd
					{
						OFFSET -0.000000 0.000000 7.539996
						CHANNELS 3 Zrotation Yrotation Xrotation
						End Site
						{
							OFFSET 0.000000 0.000000 0.000000
						}
					}
				}
				JOINT LeftLegEnd
				{
					OFFSET 0.000000 0.000000 0.000000
					CHANNELS 3 Zrotation Yrotation Xrotation
					End Site
					{
						OFFSET 0.000000 0.000000 0.000000
					}
				}
			}
			JOINT LeftUpLegEnd
			{
				OFFSET 0.000000 0.000000 0.000000
				CHANNELS 3 Zrotation Yrotation Xrotation
				End Site
				{
					OFFSET 0.000000 0.000000 0.000000
				}
			}
		}
	}
}
MOTION
Frames: 4
Frame Time: 0.016667
-0.423459 88.195518 5.389343 -0.136605 -0.031214 -12.871155 -0.597690 -0.114134 8.046451 -0.714962 0.264577 1.609056 1.075990 -0.534369 9.376546 1.549694 -0.243464 4.719204 -2.627906 1.148370 3.083880 1.223221 1.352064 -4.161771 -0.527238 -0.498227 -19.260670 0.000000 0.000000 0.000000 90.153053 -0.311022 6.032264 69.005707 -17.187353 0.061430 -0.285120 12.653242 47.697880 13.021950 31.167780 -4.323022 9.299838 -1.682711 40.495033 -0.000008 0.000017 -22.676949 -0.000012 0.000046 -15.867356 0.000012 0.000000 -0.000011 7.174457 15.833634 -5.486625 7.248393 -0.846534 -1.645597 7.283649 0.069024 -1.543610 -0.000004 0.000028 -0.000022 8.437559 6.506352 -7.659276 7.130863 -0.904213 -0.686926 7.197269 0.028459 -0.583011 0.000018 0.000026 0.000014 14.276708 -8.311031 -10.543126 8.268703 1.813112 1.069833 8.270082 -0.052454 0.839410 -0.000025 -0.000305 0.000014 21.493259 -23.347540 -15.124451 9.007297 3.483607 3.574492 8.941792 -0.216148 3.139728 -0.000276 -0.000003 -0.000002 0.000000 0.000000 0.000000 0.000000 0.000000 0.000000 -91.474808 0.263189 10.739222 -61.792259 33.387573 0.499466 -0.458388 -15.909532 57.970730 -4.766622 -6.423124 -8.606647 -10.709441 1.822857 39.847778 0.000015 0.000026 -26.132137 -0.000041 -0.000019 -18.098217 -0.000246 0.000001 0.000257 -15.919909 15.712262 -9.017169 -8.825275 -0.753897 2.229721 -8.736875 0.156465 2.070772 -0.000012 0.000058 0.000013 -13.733335 6.486558 -10.165379 -8.549701 -0.869912 0.851857 -8.341546 0.058010 0.735309 0.001333 -0.000019 -0.000040 -12.212555 -8.338443 -10.893113 -9.371324 1.767401 -1.256329 -9.231186 -0.080987 -0.967887 0.000368 0.000009 0.000000 -8.660993 -24.103521 -13.864380 -9.172357 3.409012 -3.593886 -9.158403 -0.260473 -3.060614 -0.000117 0.000000 -0.000046 0.000000 0.000000 0.000000 0.000000 0.000000 0.000000 1.046996 4.578347 12.480250 -0.098558 -0.438343 11.245057 -4.801404 4.837791 14.561546 -0.244909 0.466521 -19.714970 0.000000 0.000000 0.000000 0.000000 0.000000 0.000000 0.000000 0.000000 0.000000 2.377397 13.935020 17.478657 0.075445 0.672486 6.399482 0.304129 13.363379 15.638914 1.060498 -0.834273 -18.277054 0.000000 0.000000 0.000000 0.000000 0.000000 0.000000 0.000000 0.000000 0.000000 
-0.413212 88.235504 5.387877 0.016679 -0.018554 -13.352660 -0.991785 -0.013335 8.632279 -0.728326 0.214549 1.416477 1.295233 -0.549803 10.403333 1.620171 -0.271278 3.988772 -2.677360 0.845845 2.930861 1.192558 1.100996 -4.726779 -0.269290 -0.611185 -18.927151 0.000000 0.000000 0.000000 90.068703 -0.040845 7.255582 67.963982 -18.774866 -1.065420 0.136001 13.978528 49.710957 12.801604 30.183990 -3.654493 9.388128 -1.689873 40.485027 -0.000012 0.000011 -22.915438 -0.000013 0.000035 -15.921010 0.000006 -0.000005 -0.000007 7.135283 15.516909 -5.502944 6.970346 -0.732172 -2.029112 7.018761 0.162100 -1.906902 -0.000015 0.000004 -0.000020 8.190151 6.393535 -7.733207 7.029637 -0.843252 -0.835581 7.087727 0.058884 -0.716159 0.000014 0.000001 0.000006 13.813035 -8.197714 -10.673700 8.435128 1.722661 1.265338 8.406887 -0.087993 0.982189 -0.000024 -0.000805 0.000006 20.093979 -23.148676 -15.119003 8.967565 3.286391 3.938099 8.783999 -0.312177 3.406090 -0.000104 0.000000 0.000035 0.000000 0.000000 0.000000 0.000000 0.000000 0.000000 -91.046791 0.310860 10.440060 -61.581059 32.642483 0.581091 -0.579358 -15.565136 56.173466 -6.184614 -4.597048 -8.273613 -10.747572 1.849206 39.856861 0.000006 0.000011 -26.151514 0.000063 -0.000022 -18.134588 -0.000114 0.000000 -0.000852 -15.499680 15.558547 -7.244704 -9.005454 -0.671415 2.437221 -9.070141 0.212378 2.283698 -0.000002 0.000702 0.000002 -13.842977 6.405847 -9.029635 -8.890348 -0.826647 0.936367 -8.702981 0.075983 0.813474 0.000068 -0.000029 -0.000017 -12.307447 -8.172721 -10.598893 -9.343385 1.711083 -1.327663 -9.276236 -0.094518 -1.016714 0.000620 0.000004 0.000000 -8.454990 -23.482243 -14.259299 -8.923968 3.300456 -3.736624 -8.907911 -0.301105 -3.163829 -0.000036 -0.000007 -0.000031 0.000000 0.000000 0.000000 0.000000 0.000000 0.000000 0.778580 5.833436 13.079518 -0.115584 -0.522395 11.136479 -4.325187 3.662599 14.232901 -0.368633 0.495073 -19.924520 0.000000 0.000000 0.000000 0.000000 0.000000 0.000000 0.000000 0.000000 0.000000 2.008006 13.004219 17.526747 0.041711 0.716732 6.630408 0.458071 14.791399 15.712786 1.060715 -0.744726 -18.443398 0.000000 0.000000 0.000000 0.000000 0.000000 0.000000 0.000000 0.000000 0.000000 
-0.416384 88.231361 5.396569 -0.038034 -0.040078 -13.344262 -0.955974 -0.030316 8.634244 -0.708895 0.198122 1.408790 1.235563 -0.579785 10.331533 1.666407 -0.305726 4.000311 -2.701588 0.972909 2.983340 1.215299 1.255962 -4.604927 -0.339678 -0.619292 -18.896120 0.000000 0.000000 0.000000 90.064552 -0.047903 7.269461 67.569061 -18.916880 -0.734410 0.090053 14.037184 49.513844 12.648876 30.016590 -4.074488 9.310314 -1.682842 40.518204 -0.000008 0.000017 -22.748547 -0.000013 0.000034 -15.805953 0.000015 -0.000001 -0.000016 6.961776 15.504288 -5.311213 6.866806 -0.749154 -1.962080 6.912733 0.145163 -1.846809 -0.000001 0.000014 -0.000020 7.997484 6.388655 -7.558581 6.904646 -0.849993 -0.808924 6.953922 0.052798 -0.694253 0.000010 -0.000015 -0.000000 13.614909 -8.189868 -10.570602 8.298176 1.732733 1.230529 8.270872 -0.079960 0.953860 -0.000028 -0.000790 -0.000003 19.946066 -23.124855 -15.102821 8.880120 3.313270 3.852675 8.687452 -0.288962 3.331543 -0.000063 0.000009 0.000027 0.000000 0.000000 0.000000 0.000000 0.000000 0.000000 -91.085960 0.294567 10.536207 -61.600674 32.846844 0.467914 -0.600070 -15.493088 55.462631 -6.368322 -4.859470 -8.994609 -10.726196 1.847460 39.865654 0.000015 0.000015 -26.091858 0.000064 -0.000015 -18.089190 -0.000170 0.000010 -0.000845 -15.432957 15.557206 -7.334048 -9.026648 -0.680544 2.398118 -9.079392 0.203571 2.246893 0.000012 0.000611 0.000003 -13.730904 6.406372 -9.117086 -8.885215 -0.829841 0.918101 -8.707181 0.073311 0.799252 0.000062 -0.000027 -0.000035 -12.180869 -8.171066 -10.664730 -9.328552 1.716285 -1.309074 -9.265486 -0.090104 -1.004141 0.000787 0.000007 0.000001 -8.346606 -23.481571 -14.346992 -8.930785 3.314043 -3.684708 -8.917423 -0.288170 -3.127835 -0.000034 0.000009 -0.000046 0.000000 0.000000 0.000000 0.000000 0.000000 0.000000 0.866083 5.795322 13.008650 -0.111528 -0.516521 11.203489 -4.370806 3.836552 14.232219 -0.347401 0.502026 -19.863035 0.000000 0.000000 0.000000 0.000000 0.000000 0.000000 0.000000 0.000000 0.000000 2.077599 13.050108 17.620090 0.044877 0.723216 6.529394 0.346239 14.822826 15.697946 1.072648 -0.753904 -18.410564 0.000000 0.000000 0.000000 0.000000 0.000000 0.000000 0.000000 0.000000 0.000000 
-0.414757 88.229973 5.410799 -0.055188 -0.042423 -13.323649 -0.938195 -0.038330 8.620428 -0.696525 0.189534 1.389427 1.198381 -0.569267 10.276375 1.715169 -0.319877 4.015487 -2.728189 1.054783 2.994177 1.228896 1.356069 -4.547066 -0.379937 -0.612413 -18.909039 0.000000 0.000000 0.000000 90.068520 -0.072511 7.268046 67.278893 -19.122681 -0.469631 0.059853 14.165339 49.147278 12.333786 29.682306 -4.497066 9.237511 -1.676785 40.547939 -0.000005 0.000017 -22.587542 -0.000014 0.000035 -15.693519 0.000015 -0.000001 -0.000015 6.719174 15.494280 -5.231823 6.747936 -0.766362 -1.889709 6.794241 0.128081 -1.781670 -0.000001 0.000013 -0.000022 7.748753 6.384100 -7.482385 6.762749 -0.856836 -0.780665 6.804043 0.046734 -0.670323 0.000011 -0.000015 0.000002 13.382712 -8.181416 -10.512918 8.155797 1.742134 1.194694 8.131587 -0.072396 0.925085 -0.000027 -0.000790 -0.000001 19.782885 -23.099401 -15.078094 8.782660 3.338127 3.767317 8.585055 -0.267896 3.256286 -0.000054 0.000008 0.000020 0.000000 0.000000 0.000000 0.000000 0.000000 0.000000 -91.099586 0.290905 10.612671 -61.652092 33.110725 0.381877 -0.640535 -15.439999 54.760525 -6.495958 -4.987956 -9.498572 -10.702628 1.845662 39.873634 0.000013 0.000016 -26.041376 0.000059 -0.000015 -18.050558 -0.000241 0.000008 -0.000728 -15.364687 15.552828 -7.516556 -9.046057 -0.690723 2.352902 -9.090048 0.193948 2.202560 0.000010 0.000519 0.000004 -13.608655 6.404797 -9.261250 -8.878953 -0.833552 0.898107 -8.705735 0.070033 0.782736 0.000027 -0.000028 -0.000044 -12.040998 -8.169272 -10.755346 -9.313764 1.721967 -1.286666 -9.248903 -0.085570 -0.988105 0.000888 0.000007 0.000001 -8.233327 -23.479328 -14.404201 -8.929338 3.327807 -3.625933 -8.910258 -0.275075 -3.080894 -0.000032 0.000008 -0.000047 0.000000 0.000000 0.000000 0.000000 0.000000 0.000000 0.900074 5.800931 12.972578 -0.109108 -0.512424 11.229717 -4.385775 3.951885 14.231135 -0.333821 0.505508 -19.827662 0.000000 0.000000 0.000000 0.000000 0.000000 0.000000 0.000000 0.000000 0.000000 2.084196 13.060484 17.709473 0.047485 0.729517 6.411512 0.292183 14.847068 15.700706 1.080727 -0.759431 -18.391817 0.000000 0.000000 0.000000 0.000000 0.000000 0.000000 0.000000 0.000000 0.000000 
